<mxfile host="Electron" modified="2024-02-05T03:55:49.858Z" agent="Mozilla/5.0 (Windows NT 10.0; Win64; x64) AppleWebKit/537.36 (KHTML, like Gecko) draw.io/23.0.2 Chrome/120.0.6099.109 Electron/28.1.0 Safari/537.36" etag="daXqfeJcmysvcvp1-d_E" version="23.0.2" type="device">
  <diagram name="Page-1" id="ljiQYLVwFGQj0ASf_PNN">
    <mxGraphModel dx="1036" dy="614" grid="1" gridSize="10" guides="1" tooltips="1" connect="1" arrows="1" fold="1" page="1" pageScale="1" pageWidth="850" pageHeight="1100" math="0" shadow="0">
      <root>
        <mxCell id="0" />
        <mxCell id="1" parent="0" />
        <mxCell id="eJHVP4ze7br_Q-rThbXt-9" value="URL" style="edgeStyle=orthogonalEdgeStyle;rounded=0;orthogonalLoop=1;jettySize=auto;html=1;exitX=1;exitY=0.25;exitDx=0;exitDy=0;entryX=0;entryY=0.5;entryDx=0;entryDy=0;" edge="1" parent="1" source="eJHVP4ze7br_Q-rThbXt-1" target="eJHVP4ze7br_Q-rThbXt-4">
          <mxGeometry relative="1" as="geometry" />
        </mxCell>
        <mxCell id="eJHVP4ze7br_Q-rThbXt-29" value="User Search Term" style="edgeStyle=orthogonalEdgeStyle;rounded=0;orthogonalLoop=1;jettySize=auto;html=1;exitX=0.75;exitY=0;exitDx=0;exitDy=0;entryX=0;entryY=0;entryDx=0;entryDy=0;" edge="1" parent="1" source="eJHVP4ze7br_Q-rThbXt-1" target="eJHVP4ze7br_Q-rThbXt-4">
          <mxGeometry relative="1" as="geometry" />
        </mxCell>
        <mxCell id="eJHVP4ze7br_Q-rThbXt-1" value="User" style="rounded=0;whiteSpace=wrap;html=1;" vertex="1" parent="1">
          <mxGeometry x="110" y="100" width="120" height="60" as="geometry" />
        </mxCell>
        <mxCell id="eJHVP4ze7br_Q-rThbXt-12" value="HTML DOM" style="edgeStyle=orthogonalEdgeStyle;rounded=0;orthogonalLoop=1;jettySize=auto;html=1;exitX=1;exitY=0.75;exitDx=0;exitDy=0;entryX=0;entryY=1;entryDx=0;entryDy=0;" edge="1" parent="1" source="eJHVP4ze7br_Q-rThbXt-2" target="eJHVP4ze7br_Q-rThbXt-5">
          <mxGeometry relative="1" as="geometry" />
        </mxCell>
        <mxCell id="eJHVP4ze7br_Q-rThbXt-2" value="External Website" style="rounded=0;whiteSpace=wrap;html=1;" vertex="1" parent="1">
          <mxGeometry x="110" y="220" width="120" height="60" as="geometry" />
        </mxCell>
        <mxCell id="eJHVP4ze7br_Q-rThbXt-3" value="Cloud Backup" style="rounded=0;whiteSpace=wrap;html=1;" vertex="1" parent="1">
          <mxGeometry x="110" y="340" width="120" height="60" as="geometry" />
        </mxCell>
        <mxCell id="eJHVP4ze7br_Q-rThbXt-10" value="Valid URL" style="edgeStyle=orthogonalEdgeStyle;rounded=0;orthogonalLoop=1;jettySize=auto;html=1;exitX=0.5;exitY=1;exitDx=0;exitDy=0;" edge="1" parent="1" source="eJHVP4ze7br_Q-rThbXt-4" target="eJHVP4ze7br_Q-rThbXt-5">
          <mxGeometry relative="1" as="geometry">
            <mxPoint as="offset" />
          </mxGeometry>
        </mxCell>
        <mxCell id="eJHVP4ze7br_Q-rThbXt-25" value="URL Validation Status" style="edgeStyle=orthogonalEdgeStyle;rounded=0;orthogonalLoop=1;jettySize=auto;html=1;exitX=0;exitY=1;exitDx=0;exitDy=0;" edge="1" parent="1" source="eJHVP4ze7br_Q-rThbXt-4" target="eJHVP4ze7br_Q-rThbXt-1">
          <mxGeometry relative="1" as="geometry" />
        </mxCell>
        <mxCell id="eJHVP4ze7br_Q-rThbXt-27" style="edgeStyle=orthogonalEdgeStyle;rounded=0;orthogonalLoop=1;jettySize=auto;html=1;exitX=1;exitY=1;exitDx=0;exitDy=0;entryX=1;entryY=0;entryDx=0;entryDy=0;" edge="1" parent="1" source="eJHVP4ze7br_Q-rThbXt-4" target="eJHVP4ze7br_Q-rThbXt-6">
          <mxGeometry relative="1" as="geometry">
            <mxPoint x="510" y="320" as="targetPoint" />
            <Array as="points">
              <mxPoint x="510" y="148" />
              <mxPoint x="510" y="342" />
            </Array>
          </mxGeometry>
        </mxCell>
        <mxCell id="eJHVP4ze7br_Q-rThbXt-28" value="Valid Search Term" style="edgeLabel;html=1;align=center;verticalAlign=middle;resizable=0;points=[];" vertex="1" connectable="0" parent="eJHVP4ze7br_Q-rThbXt-27">
          <mxGeometry x="-0.0202" y="-3" relative="1" as="geometry">
            <mxPoint x="23" y="27" as="offset" />
          </mxGeometry>
        </mxCell>
        <mxCell id="eJHVP4ze7br_Q-rThbXt-35" value="Valid URLs" style="edgeStyle=orthogonalEdgeStyle;rounded=0;orthogonalLoop=1;jettySize=auto;html=1;exitX=1;exitY=0;exitDx=0;exitDy=0;" edge="1" parent="1" source="eJHVP4ze7br_Q-rThbXt-4" target="eJHVP4ze7br_Q-rThbXt-17">
          <mxGeometry relative="1" as="geometry" />
        </mxCell>
        <mxCell id="eJHVP4ze7br_Q-rThbXt-36" value="Valid Search Terms" style="edgeStyle=orthogonalEdgeStyle;rounded=0;orthogonalLoop=1;jettySize=auto;html=1;exitX=1;exitY=0.5;exitDx=0;exitDy=0;entryX=0.5;entryY=1;entryDx=0;entryDy=0;" edge="1" parent="1" source="eJHVP4ze7br_Q-rThbXt-4" target="eJHVP4ze7br_Q-rThbXt-33">
          <mxGeometry relative="1" as="geometry">
            <Array as="points">
              <mxPoint x="480" y="130" />
              <mxPoint x="560" y="130" />
              <mxPoint x="560" y="200" />
            </Array>
          </mxGeometry>
        </mxCell>
        <mxCell id="eJHVP4ze7br_Q-rThbXt-4" value="Input Validator" style="ellipse;whiteSpace=wrap;html=1;aspect=fixed;" vertex="1" parent="1">
          <mxGeometry x="400" y="80" width="80" height="80" as="geometry" />
        </mxCell>
        <mxCell id="eJHVP4ze7br_Q-rThbXt-11" value="HTML GET Request" style="edgeStyle=orthogonalEdgeStyle;rounded=0;orthogonalLoop=1;jettySize=auto;html=1;exitX=0;exitY=0.5;exitDx=0;exitDy=0;entryX=1;entryY=0.5;entryDx=0;entryDy=0;" edge="1" parent="1" source="eJHVP4ze7br_Q-rThbXt-5" target="eJHVP4ze7br_Q-rThbXt-2">
          <mxGeometry relative="1" as="geometry" />
        </mxCell>
        <mxCell id="eJHVP4ze7br_Q-rThbXt-24" style="edgeStyle=orthogonalEdgeStyle;rounded=0;orthogonalLoop=1;jettySize=auto;html=1;exitX=0.5;exitY=1;exitDx=0;exitDy=0;entryX=0.5;entryY=0;entryDx=0;entryDy=0;" edge="1" parent="1" source="eJHVP4ze7br_Q-rThbXt-5" target="eJHVP4ze7br_Q-rThbXt-6">
          <mxGeometry relative="1" as="geometry" />
        </mxCell>
        <mxCell id="eJHVP4ze7br_Q-rThbXt-26" value="HTML DOM" style="edgeLabel;html=1;align=center;verticalAlign=middle;resizable=0;points=[];" vertex="1" connectable="0" parent="eJHVP4ze7br_Q-rThbXt-24">
          <mxGeometry x="-0.112" y="1" relative="1" as="geometry">
            <mxPoint as="offset" />
          </mxGeometry>
        </mxCell>
        <mxCell id="eJHVP4ze7br_Q-rThbXt-5" value="HTML Scraper" style="ellipse;whiteSpace=wrap;html=1;aspect=fixed;" vertex="1" parent="1">
          <mxGeometry x="400" y="200" width="80" height="80" as="geometry" />
        </mxCell>
        <mxCell id="eJHVP4ze7br_Q-rThbXt-31" value="Search Results&lt;br style=&quot;border-color: var(--border-color);&quot;&gt;(JSON containing&lt;br style=&quot;border-color: var(--border-color);&quot;&gt;URL and HTML element&lt;br style=&quot;border-color: var(--border-color);&quot;&gt;containing search term)" style="edgeStyle=orthogonalEdgeStyle;rounded=0;orthogonalLoop=1;jettySize=auto;html=1;exitX=1;exitY=0.5;exitDx=0;exitDy=0;entryX=0.5;entryY=1;entryDx=0;entryDy=0;" edge="1" parent="1" source="eJHVP4ze7br_Q-rThbXt-6" target="eJHVP4ze7br_Q-rThbXt-16">
          <mxGeometry x="-0.0588" y="-10" relative="1" as="geometry">
            <mxPoint x="-10" y="10" as="offset" />
          </mxGeometry>
        </mxCell>
        <mxCell id="eJHVP4ze7br_Q-rThbXt-6" value="HTML Searcher" style="ellipse;whiteSpace=wrap;html=1;aspect=fixed;" vertex="1" parent="1">
          <mxGeometry x="400" y="330" width="80" height="80" as="geometry" />
        </mxCell>
        <mxCell id="eJHVP4ze7br_Q-rThbXt-44" value="Search Results History" style="edgeStyle=orthogonalEdgeStyle;rounded=0;orthogonalLoop=1;jettySize=auto;html=1;exitX=1;exitY=0.5;exitDx=0;exitDy=0;entryX=0.75;entryY=1;entryDx=0;entryDy=0;" edge="1" parent="1" source="eJHVP4ze7br_Q-rThbXt-16" target="eJHVP4ze7br_Q-rThbXt-3">
          <mxGeometry relative="1" as="geometry">
            <Array as="points">
              <mxPoint x="710" y="460" />
              <mxPoint x="200" y="460" />
            </Array>
          </mxGeometry>
        </mxCell>
        <mxCell id="eJHVP4ze7br_Q-rThbXt-16" value="Search Results History" style="shape=partialRectangle;whiteSpace=wrap;html=1;top=0;bottom=0;fillColor=none;horizontal=0;rotation=90;" vertex="1" parent="1">
          <mxGeometry x="690" y="290" width="40" height="140" as="geometry" />
        </mxCell>
        <mxCell id="eJHVP4ze7br_Q-rThbXt-40" value="Link History" style="edgeStyle=orthogonalEdgeStyle;rounded=0;orthogonalLoop=1;jettySize=auto;html=1;exitX=0.5;exitY=0;exitDx=0;exitDy=0;entryX=0.25;entryY=1;entryDx=0;entryDy=0;" edge="1" parent="1" source="eJHVP4ze7br_Q-rThbXt-17" target="eJHVP4ze7br_Q-rThbXt-3">
          <mxGeometry relative="1" as="geometry">
            <mxPoint x="140" y="420" as="targetPoint" />
            <mxPoint x="780" y="140" as="sourcePoint" />
            <Array as="points">
              <mxPoint x="830" y="120" />
              <mxPoint x="830" y="500" />
              <mxPoint x="140" y="500" />
            </Array>
          </mxGeometry>
        </mxCell>
        <mxCell id="eJHVP4ze7br_Q-rThbXt-17" value="Link History" style="shape=partialRectangle;whiteSpace=wrap;html=1;top=0;bottom=0;fillColor=none;horizontal=0;rotation=90;" vertex="1" parent="1">
          <mxGeometry x="690" y="50" width="40" height="140" as="geometry" />
        </mxCell>
        <mxCell id="eJHVP4ze7br_Q-rThbXt-41" style="edgeStyle=orthogonalEdgeStyle;rounded=0;orthogonalLoop=1;jettySize=auto;html=1;exitX=0.5;exitY=0;exitDx=0;exitDy=0;entryX=0.5;entryY=1;entryDx=0;entryDy=0;" edge="1" parent="1" source="eJHVP4ze7br_Q-rThbXt-33" target="eJHVP4ze7br_Q-rThbXt-3">
          <mxGeometry relative="1" as="geometry">
            <mxPoint x="820" y="430" as="targetPoint" />
            <Array as="points">
              <mxPoint x="800" y="200" />
              <mxPoint x="800" y="480" />
              <mxPoint x="170" y="480" />
            </Array>
          </mxGeometry>
        </mxCell>
        <mxCell id="eJHVP4ze7br_Q-rThbXt-43" value="Search Term History" style="edgeLabel;html=1;align=center;verticalAlign=middle;resizable=0;points=[];" vertex="1" connectable="0" parent="eJHVP4ze7br_Q-rThbXt-41">
          <mxGeometry x="-0.0036" relative="1" as="geometry">
            <mxPoint as="offset" />
          </mxGeometry>
        </mxCell>
        <mxCell id="eJHVP4ze7br_Q-rThbXt-33" value="Search Term History" style="shape=partialRectangle;whiteSpace=wrap;html=1;top=0;bottom=0;fillColor=none;horizontal=0;rotation=90;" vertex="1" parent="1">
          <mxGeometry x="690" y="130" width="40" height="140" as="geometry" />
        </mxCell>
        <mxCell id="eJHVP4ze7br_Q-rThbXt-37" value="" style="endArrow=none;dashed=1;html=1;rounded=0;" edge="1" parent="1">
          <mxGeometry width="50" height="50" relative="1" as="geometry">
            <mxPoint x="250" y="180" as="sourcePoint" />
            <mxPoint x="250" y="60" as="targetPoint" />
          </mxGeometry>
        </mxCell>
        <mxCell id="eJHVP4ze7br_Q-rThbXt-38" value="" style="endArrow=none;dashed=1;html=1;rounded=0;" edge="1" parent="1">
          <mxGeometry width="50" height="50" relative="1" as="geometry">
            <mxPoint x="250" y="310" as="sourcePoint" />
            <mxPoint x="250" y="190" as="targetPoint" />
          </mxGeometry>
        </mxCell>
        <mxCell id="eJHVP4ze7br_Q-rThbXt-39" value="" style="endArrow=none;dashed=1;html=1;rounded=0;" edge="1" parent="1">
          <mxGeometry width="50" height="50" relative="1" as="geometry">
            <mxPoint x="250" y="410" as="sourcePoint" />
            <mxPoint x="250" y="320" as="targetPoint" />
          </mxGeometry>
        </mxCell>
        <mxCell id="eJHVP4ze7br_Q-rThbXt-42" value="" style="endArrow=none;dashed=1;html=1;rounded=0;" edge="1" parent="1">
          <mxGeometry width="50" height="50" relative="1" as="geometry">
            <mxPoint x="250" y="410" as="sourcePoint" />
            <mxPoint x="110" y="410" as="targetPoint" />
          </mxGeometry>
        </mxCell>
      </root>
    </mxGraphModel>
  </diagram>
</mxfile>
